<mxfile host="app.diagrams.net" modified="2024-04-10T01:16:01.164Z" agent="Mozilla/5.0 (X11; Linux x86_64) AppleWebKit/537.36 (KHTML, like Gecko) Chrome/123.0.0.0 Safari/537.36" etag="_wFVp_PmHfzcAd2ZBaBS" version="24.2.1" type="github">
  <diagram name="Page-1" id="qYGnwQKeW0QVVgXgxwFU">
    <mxGraphModel dx="91" dy="547" grid="1" gridSize="10" guides="1" tooltips="1" connect="1" arrows="1" fold="1" page="1" pageScale="1" pageWidth="850" pageHeight="1100" math="0" shadow="0">
      <root>
        <mxCell id="0" />
        <mxCell id="1" parent="0" />
        <mxCell id="_G9vp7A2_aAfUCTHlnE7-1" style="edgeStyle=orthogonalEdgeStyle;rounded=0;orthogonalLoop=1;jettySize=auto;html=1;exitX=0.5;exitY=0;exitDx=0;exitDy=0;entryX=0;entryY=1;entryDx=0;entryDy=0;strokeWidth=4;" parent="1" source="_G9vp7A2_aAfUCTHlnE7-2" target="_G9vp7A2_aAfUCTHlnE7-38" edge="1">
          <mxGeometry relative="1" as="geometry" />
        </mxCell>
        <mxCell id="_G9vp7A2_aAfUCTHlnE7-2" value="" style="rounded=1;whiteSpace=wrap;html=1;fontSize=12;glass=0;strokeWidth=3;shadow=0;fillColor=#e1d5e7;strokeColor=#000000;" parent="1" vertex="1">
          <mxGeometry x="1112" y="276.5" width="130" height="40" as="geometry" />
        </mxCell>
        <mxCell id="_G9vp7A2_aAfUCTHlnE7-3" value="" style="ellipse;whiteSpace=wrap;html=1;aspect=fixed;strokeWidth=2;fillColor=#F19C99;strokeColor=#000000;" parent="1" vertex="1">
          <mxGeometry x="1122" y="286.5" width="20" height="20" as="geometry" />
        </mxCell>
        <mxCell id="_G9vp7A2_aAfUCTHlnE7-4" value="" style="ellipse;whiteSpace=wrap;html=1;aspect=fixed;strokeWidth=2;fillColor=#F19C99;strokeColor=#000000;" parent="1" vertex="1">
          <mxGeometry x="1152" y="286.5" width="20" height="20" as="geometry" />
        </mxCell>
        <mxCell id="_G9vp7A2_aAfUCTHlnE7-5" value="" style="ellipse;whiteSpace=wrap;html=1;aspect=fixed;strokeWidth=2;fillColor=#F19C99;strokeColor=#000000;" parent="1" vertex="1">
          <mxGeometry x="1182" y="286.5" width="20" height="20" as="geometry" />
        </mxCell>
        <mxCell id="_G9vp7A2_aAfUCTHlnE7-6" value="" style="ellipse;whiteSpace=wrap;html=1;aspect=fixed;strokeWidth=2;fillColor=#F19C99;strokeColor=#000000;" parent="1" vertex="1">
          <mxGeometry x="1212" y="286.5" width="20" height="20" as="geometry" />
        </mxCell>
        <mxCell id="-yWylqtdUWJnNf-ibGll-5" style="edgeStyle=orthogonalEdgeStyle;rounded=0;orthogonalLoop=1;jettySize=auto;html=1;exitX=0.5;exitY=0;exitDx=0;exitDy=0;entryX=0;entryY=0;entryDx=0;entryDy=0;strokeWidth=4;" edge="1" parent="1" source="_G9vp7A2_aAfUCTHlnE7-8" target="_G9vp7A2_aAfUCTHlnE7-68">
          <mxGeometry relative="1" as="geometry">
            <Array as="points">
              <mxPoint x="1039" y="121" />
              <mxPoint x="1070" y="120" />
            </Array>
          </mxGeometry>
        </mxCell>
        <mxCell id="_G9vp7A2_aAfUCTHlnE7-8" value="" style="rounded=1;whiteSpace=wrap;html=1;fontSize=12;glass=0;strokeWidth=3;shadow=0;rotation=90;fillColor=#d5e8d4;strokeColor=#000000;" parent="1" vertex="1">
          <mxGeometry x="917" y="101" width="140" height="40" as="geometry" />
        </mxCell>
        <mxCell id="_G9vp7A2_aAfUCTHlnE7-9" value="" style="ellipse;whiteSpace=wrap;html=1;aspect=fixed;strokeWidth=2;fillColor=#67AB9F;strokeColor=#000000;" parent="1" vertex="1">
          <mxGeometry x="977" y="66" width="20" height="20" as="geometry" />
        </mxCell>
        <mxCell id="_G9vp7A2_aAfUCTHlnE7-10" value="" style="ellipse;whiteSpace=wrap;html=1;aspect=fixed;strokeWidth=2;fillColor=#67AB9F;strokeColor=#000000;" parent="1" vertex="1">
          <mxGeometry x="977" y="96" width="20" height="20" as="geometry" />
        </mxCell>
        <mxCell id="_G9vp7A2_aAfUCTHlnE7-11" value="" style="ellipse;whiteSpace=wrap;html=1;aspect=fixed;strokeWidth=2;fillColor=#67AB9F;strokeColor=#000000;" parent="1" vertex="1">
          <mxGeometry x="977" y="126" width="20" height="20" as="geometry" />
        </mxCell>
        <mxCell id="_G9vp7A2_aAfUCTHlnE7-12" value="" style="ellipse;whiteSpace=wrap;html=1;aspect=fixed;strokeWidth=2;fillColor=#67AB9F;strokeColor=#000000;" parent="1" vertex="1">
          <mxGeometry x="977" y="156" width="20" height="20" as="geometry" />
        </mxCell>
        <mxCell id="_G9vp7A2_aAfUCTHlnE7-14" value="x&lt;sup&gt;(t)&lt;/sup&gt;" style="text;html=1;align=center;verticalAlign=middle;whiteSpace=wrap;rounded=0;fontSize=23;strokeWidth=4;" parent="1" vertex="1">
          <mxGeometry x="1074" y="350.14" width="60" height="30" as="geometry" />
        </mxCell>
        <mxCell id="_G9vp7A2_aAfUCTHlnE7-16" value="U&lt;sub&gt;i&lt;/sub&gt;" style="text;html=1;align=center;verticalAlign=middle;whiteSpace=wrap;rounded=0;fontSize=28;fontStyle=2" parent="1" vertex="1">
          <mxGeometry x="1052" y="282.5" width="60" height="30" as="geometry" />
        </mxCell>
        <mxCell id="_G9vp7A2_aAfUCTHlnE7-32" value="" style="rounded=0;whiteSpace=wrap;html=1;strokeWidth=3;fillColor=#fff2cc;strokeColor=#d6b656;" parent="1" vertex="1">
          <mxGeometry x="1127" y="358.14" width="20" height="20" as="geometry" />
        </mxCell>
        <mxCell id="_G9vp7A2_aAfUCTHlnE7-33" value="" style="rounded=0;whiteSpace=wrap;html=1;strokeWidth=3;fillColor=#fff2cc;strokeColor=#d6b656;" parent="1" vertex="1">
          <mxGeometry x="1147" y="358.14" width="20" height="20" as="geometry" />
        </mxCell>
        <mxCell id="-yWylqtdUWJnNf-ibGll-8" style="edgeStyle=orthogonalEdgeStyle;rounded=0;orthogonalLoop=1;jettySize=auto;html=1;exitX=0.5;exitY=0;exitDx=0;exitDy=0;entryX=0.5;entryY=1;entryDx=0;entryDy=0;strokeWidth=4;" edge="1" parent="1" source="_G9vp7A2_aAfUCTHlnE7-34" target="_G9vp7A2_aAfUCTHlnE7-2">
          <mxGeometry relative="1" as="geometry" />
        </mxCell>
        <mxCell id="_G9vp7A2_aAfUCTHlnE7-34" value="" style="rounded=0;whiteSpace=wrap;html=1;strokeWidth=3;fillColor=#fff2cc;strokeColor=#d6b656;" parent="1" vertex="1">
          <mxGeometry x="1167" y="358.14" width="20" height="20" as="geometry" />
        </mxCell>
        <mxCell id="_G9vp7A2_aAfUCTHlnE7-35" value="" style="rounded=0;whiteSpace=wrap;html=1;strokeWidth=3;fillColor=#fff2cc;strokeColor=#d6b656;" parent="1" vertex="1">
          <mxGeometry x="1187" y="358.14" width="20" height="20" as="geometry" />
        </mxCell>
        <mxCell id="_G9vp7A2_aAfUCTHlnE7-36" value="" style="rounded=0;whiteSpace=wrap;html=1;strokeWidth=3;fillColor=#e1d5e7;strokeColor=#9673a6;" parent="1" vertex="1">
          <mxGeometry x="1137" y="204.5" width="20" height="20" as="geometry" />
        </mxCell>
        <mxCell id="_G9vp7A2_aAfUCTHlnE7-37" value="" style="rounded=0;whiteSpace=wrap;html=1;strokeWidth=3;fillColor=#e1d5e7;strokeColor=#9673a6;" parent="1" vertex="1">
          <mxGeometry x="1157" y="204.5" width="20" height="20" as="geometry" />
        </mxCell>
        <mxCell id="_G9vp7A2_aAfUCTHlnE7-38" value="" style="rounded=0;whiteSpace=wrap;html=1;strokeWidth=3;fillColor=#e1d5e7;strokeColor=#9673a6;" parent="1" vertex="1">
          <mxGeometry x="1177" y="204.5" width="20" height="20" as="geometry" />
        </mxCell>
        <mxCell id="_G9vp7A2_aAfUCTHlnE7-39" value="" style="rounded=0;whiteSpace=wrap;html=1;strokeWidth=3;fillColor=#e1d5e7;strokeColor=#9673a6;" parent="1" vertex="1">
          <mxGeometry x="1197" y="204.5" width="20" height="20" as="geometry" />
        </mxCell>
        <mxCell id="_G9vp7A2_aAfUCTHlnE7-41" style="edgeStyle=orthogonalEdgeStyle;rounded=0;orthogonalLoop=1;jettySize=auto;html=1;exitX=1;exitY=0.5;exitDx=0;exitDy=0;entryX=0;entryY=0.5;entryDx=0;entryDy=0;strokeWidth=4;" parent="1" source="_G9vp7A2_aAfUCTHlnE7-42" target="_G9vp7A2_aAfUCTHlnE7-45" edge="1">
          <mxGeometry relative="1" as="geometry" />
        </mxCell>
        <mxCell id="_G9vp7A2_aAfUCTHlnE7-42" value="+" style="ellipse;whiteSpace=wrap;html=1;aspect=fixed;fontSize=32;strokeWidth=4;" parent="1" vertex="1">
          <mxGeometry x="1152" y="96.5" width="50" height="50" as="geometry" />
        </mxCell>
        <mxCell id="_G9vp7A2_aAfUCTHlnE7-43" style="edgeStyle=orthogonalEdgeStyle;rounded=0;orthogonalLoop=1;jettySize=auto;html=1;exitX=1;exitY=0;exitDx=0;exitDy=0;entryX=0.5;entryY=1;entryDx=0;entryDy=0;strokeWidth=4;" parent="1" source="_G9vp7A2_aAfUCTHlnE7-37" target="_G9vp7A2_aAfUCTHlnE7-42" edge="1">
          <mxGeometry relative="1" as="geometry" />
        </mxCell>
        <mxCell id="_G9vp7A2_aAfUCTHlnE7-45" value="" style="ellipse;whiteSpace=wrap;html=1;aspect=fixed;fontSize=32;strokeWidth=4;" parent="1" vertex="1">
          <mxGeometry x="1267" y="96" width="50" height="50" as="geometry" />
        </mxCell>
        <mxCell id="_G9vp7A2_aAfUCTHlnE7-46" value="" style="endArrow=classic;html=1;rounded=0;exitX=1;exitY=0;exitDx=0;exitDy=0;strokeWidth=4;entryX=0;entryY=0;entryDx=0;entryDy=0;" parent="1" target="-yWylqtdUWJnNf-ibGll-2" edge="1">
          <mxGeometry width="50" height="50" relative="1" as="geometry">
            <mxPoint x="1319" y="122.5" as="sourcePoint" />
            <mxPoint x="1380" y="129" as="targetPoint" />
          </mxGeometry>
        </mxCell>
        <mxCell id="_G9vp7A2_aAfUCTHlnE7-47" value="i&lt;sub&gt;g&lt;/sub&gt;&lt;sup&gt;(t)&lt;/sup&gt;" style="text;html=1;align=center;verticalAlign=middle;whiteSpace=wrap;rounded=0;fontSize=23;strokeWidth=4;" parent="1" vertex="1">
          <mxGeometry x="1380" y="169" width="60" height="30" as="geometry" />
        </mxCell>
        <mxCell id="_G9vp7A2_aAfUCTHlnE7-50" value="W&lt;sub&gt;i&lt;/sub&gt;" style="text;html=1;align=center;verticalAlign=middle;whiteSpace=wrap;rounded=0;fontSize=28;fontStyle=2" parent="1" vertex="1">
          <mxGeometry x="942" y="10" width="60" height="30" as="geometry" />
        </mxCell>
        <mxCell id="_G9vp7A2_aAfUCTHlnE7-61" value="h&lt;sup&gt;(t-1)&lt;/sup&gt;" style="text;html=1;align=center;verticalAlign=middle;whiteSpace=wrap;rounded=0;fontSize=23;strokeWidth=4;" parent="1" vertex="1">
          <mxGeometry x="886" y="161" width="60" height="30" as="geometry" />
        </mxCell>
        <mxCell id="_G9vp7A2_aAfUCTHlnE7-62" value="" style="rounded=0;whiteSpace=wrap;html=1;strokeWidth=3;fillColor=#eeeeee;strokeColor=#36393d;" parent="1" vertex="1">
          <mxGeometry x="895" y="141" width="20" height="20" as="geometry" />
        </mxCell>
        <mxCell id="_G9vp7A2_aAfUCTHlnE7-63" value="" style="rounded=0;whiteSpace=wrap;html=1;strokeWidth=3;fillColor=#eeeeee;strokeColor=#36393d;" parent="1" vertex="1">
          <mxGeometry x="895" y="121" width="20" height="20" as="geometry" />
        </mxCell>
        <mxCell id="_G9vp7A2_aAfUCTHlnE7-64" value="" style="rounded=0;whiteSpace=wrap;html=1;strokeWidth=3;fillColor=#eeeeee;strokeColor=#36393d;" parent="1" vertex="1">
          <mxGeometry x="895" y="101" width="20" height="20" as="geometry" />
        </mxCell>
        <mxCell id="_G9vp7A2_aAfUCTHlnE7-65" value="" style="rounded=0;whiteSpace=wrap;html=1;strokeWidth=3;fillColor=#eeeeee;strokeColor=#36393d;" parent="1" vertex="1">
          <mxGeometry x="895" y="82" width="20" height="20" as="geometry" />
        </mxCell>
        <mxCell id="_G9vp7A2_aAfUCTHlnE7-67" value="" style="rounded=0;whiteSpace=wrap;html=1;strokeWidth=3;fillColor=#d5e8d4;strokeColor=#82b366;" parent="1" vertex="1">
          <mxGeometry x="1070" y="141" width="20" height="20" as="geometry" />
        </mxCell>
        <mxCell id="_G9vp7A2_aAfUCTHlnE7-68" value="" style="rounded=0;whiteSpace=wrap;html=1;strokeWidth=3;fillColor=#d5e8d4;strokeColor=#82b366;" parent="1" vertex="1">
          <mxGeometry x="1070" y="121" width="20" height="20" as="geometry" />
        </mxCell>
        <mxCell id="_G9vp7A2_aAfUCTHlnE7-69" style="edgeStyle=orthogonalEdgeStyle;rounded=0;orthogonalLoop=1;jettySize=auto;html=1;exitX=1;exitY=1;exitDx=0;exitDy=0;strokeWidth=4;" parent="1" edge="1">
          <mxGeometry relative="1" as="geometry">
            <Array as="points">
              <mxPoint x="1089.97" y="121" />
              <mxPoint x="1089.97" y="121" />
            </Array>
            <mxPoint x="1149.97" y="121.5" as="targetPoint" />
            <mxPoint x="1091.97" y="121" as="sourcePoint" />
          </mxGeometry>
        </mxCell>
        <mxCell id="_G9vp7A2_aAfUCTHlnE7-70" value="" style="rounded=0;whiteSpace=wrap;html=1;strokeWidth=3;fillColor=#d5e8d4;strokeColor=#82b366;" parent="1" vertex="1">
          <mxGeometry x="1070" y="101" width="20" height="20" as="geometry" />
        </mxCell>
        <mxCell id="_G9vp7A2_aAfUCTHlnE7-71" value="" style="rounded=0;whiteSpace=wrap;html=1;strokeWidth=3;fillColor=#d5e8d4;strokeColor=#82b366;" parent="1" vertex="1">
          <mxGeometry x="1070" y="82" width="20" height="20" as="geometry" />
        </mxCell>
        <mxCell id="_G9vp7A2_aAfUCTHlnE7-107" value="" style="endArrow=classic;html=1;rounded=0;exitX=1;exitY=1;exitDx=0;exitDy=0;strokeWidth=4;" parent="1" source="_G9vp7A2_aAfUCTHlnE7-64" edge="1">
          <mxGeometry width="50" height="50" relative="1" as="geometry">
            <mxPoint x="1216" y="245.5" as="sourcePoint" />
            <mxPoint x="966" y="121.5" as="targetPoint" />
          </mxGeometry>
        </mxCell>
        <mxCell id="-yWylqtdUWJnNf-ibGll-1" value="" style="rounded=0;whiteSpace=wrap;html=1;strokeWidth=3;fillColor=#60a917;strokeColor=#2D7600;fontColor=#ffffff;" vertex="1" parent="1">
          <mxGeometry x="1396" y="142" width="20" height="20" as="geometry" />
        </mxCell>
        <mxCell id="-yWylqtdUWJnNf-ibGll-2" value="" style="rounded=0;whiteSpace=wrap;html=1;strokeWidth=3;fillColor=#60a917;strokeColor=#2D7600;fontColor=#ffffff;" vertex="1" parent="1">
          <mxGeometry x="1396" y="122" width="20" height="20" as="geometry" />
        </mxCell>
        <mxCell id="-yWylqtdUWJnNf-ibGll-3" value="" style="rounded=0;whiteSpace=wrap;html=1;strokeWidth=3;fillColor=#60a917;strokeColor=#2D7600;fontColor=#ffffff;" vertex="1" parent="1">
          <mxGeometry x="1396" y="102" width="20" height="20" as="geometry" />
        </mxCell>
        <mxCell id="-yWylqtdUWJnNf-ibGll-4" value="" style="rounded=0;whiteSpace=wrap;html=1;strokeWidth=3;fillColor=#60a917;strokeColor=#2D7600;fontColor=#ffffff;" vertex="1" parent="1">
          <mxGeometry x="1396" y="83" width="20" height="20" as="geometry" />
        </mxCell>
        <mxCell id="-yWylqtdUWJnNf-ibGll-6" value="" style="rounded=0;whiteSpace=wrap;html=1;strokeWidth=3;fillColor=#fff2cc;strokeColor=#d6b656;" vertex="1" parent="1">
          <mxGeometry x="1207" y="358.14" width="20" height="20" as="geometry" />
        </mxCell>
      </root>
    </mxGraphModel>
  </diagram>
</mxfile>
